<svg width="24" height="24" viewBox="0 0 24 24" fill="none" xmlns="http://www.w3.org/2000/svg">
<g clip-path="url(#clip0_1555_22899)">
<path d="M12.294 1.75C9.69315 1.75 8.36574 3.9658 7.82131 4.79883C6.76921 4.4041 5.8176 4.07087 5.12893 3.83984V3.83887C4.88083 3.75577 4.62133 3.75988 4.38674 3.82812C4.15215 3.89637 3.94227 4.02948 3.79103 4.20312C3.48856 4.55041 3.38122 5.10611 3.61135 5.57519C3.9001 6.16543 4.2619 6.95392 4.56643 7.67578C4.2421 7.60821 3.94231 7.55248 3.68752 7.51562C3.08062 7.42771 2.51469 7.75653 2.23635 8.20703C1.958 8.65754 1.90774 9.26537 2.19045 9.79199C2.89753 11.1087 3.61818 12.1667 3.61818 15.1338C3.61818 18.778 6.42682 21.9443 9.9756 21.9443C9.90264 21.9443 10.2575 21.9476 10.6553 21.9531C11.0531 21.9586 11.5767 21.9664 12.1006 21.9736C12.6246 21.9809 13.1485 21.9871 13.5469 21.9922C13.7461 21.9947 13.914 21.9977 14.0352 21.999C14.0958 21.9997 14.1445 21.9997 14.1807 22C14.2169 22.0003 14.1801 22.0034 14.2793 21.999V21.9912C14.3298 21.9924 14.379 21.999 14.4297 21.999C18.0151 21.999 20.8604 18.8252 20.8604 15.1641C20.8604 12.1853 21.5908 11.1223 22.3067 9.7998C22.879 8.74282 22.0195 7.33969 20.8028 7.51465L20.8018 7.51562C20.5712 7.54879 20.2702 7.5914 20.002 7.62891C20.0214 7.57228 20.0369 7.51794 20.0576 7.46094C20.3091 6.76877 20.6339 5.99547 20.9033 5.37988V5.37891C21.1173 4.89006 20.9733 4.32563 20.6426 3.99512C20.3117 3.66439 19.749 3.52022 19.2598 3.7334H19.2588C18.6194 4.01273 17.6601 4.39917 16.7529 4.78906C16.2756 4.04008 15.1191 1.75 12.294 1.75V1.75ZM12.294 3.25C14.1951 3.25 14.766 4.418 15.3477 5.38184C14.2162 5.86114 13.115 6.34358 12.2793 6.67676C11.7295 6.4113 11.1616 6.15335 10.5869 5.90527C10.1406 5.71259 9.69497 5.53142 9.25393 5.35449C9.85108 4.44785 10.7116 3.25 12.294 3.25H12.294ZM19.2988 5.34473C19.0783 5.86376 18.8481 6.39887 18.6485 6.94824C18.5266 7.28359 18.4169 7.59137 18.3291 7.88769C17.3866 8.04075 16.3825 8.2225 15.3418 8.49023C14.9515 8.18262 14.5027 7.88697 14.0176 7.59961C15.7239 6.89765 17.8316 5.98398 19.2988 5.34473V5.34473ZM5.22267 5.47754C6.48131 5.90784 8.19267 6.50602 9.99318 7.2832C11.2734 7.83581 12.5296 8.4595 13.501 9.05566C13.3963 9.09307 13.2892 9.12473 13.1856 9.16406C12.7172 9.34181 12.2604 9.54142 11.8213 9.76465C10.2376 9.21882 8.17725 8.59062 6.37209 8.11816C6.07338 7.26384 5.62362 6.30441 5.22267 5.47754ZM21.0156 9C21.0229 8.99895 21.036 8.99695 20.9883 9.08496V9.08594C20.3082 10.3424 19.3604 11.9158 19.3604 15.1641C19.3604 18.0479 17.1183 20.499 14.4297 20.499C11.7078 20.499 9.49904 18.2759 9.49904 15.1641C9.49915 13.9965 9.92412 13.1372 10.666 12.3877C11.4079 11.6382 12.49 11.0324 13.7178 10.5664C16.1734 9.63438 19.1594 9.26702 21.0156 9L21.0156 9ZM3.51271 9.00977C4.80504 9.202 7.81729 10.0454 10.1885 10.8076C9.98294 10.9736 9.78434 11.1464 9.59963 11.333C8.63565 12.3068 7.99919 13.6072 7.99904 15.1641C7.99904 17.3198 8.905 19.207 10.3272 20.4492C10.2152 20.4477 10.0323 20.4443 9.97561 20.4443C7.33139 20.4443 5.11819 18.0075 5.11819 15.1338C5.11819 11.8998 4.18366 10.3343 3.51174 9.08301C3.49233 9.04685 3.5037 9.02756 3.51272 9.00977H3.51271Z" fill="#0A0A0A"/>
</g>
<defs>
<clipPath id="clip0_1555_22899">
<rect width="24" height="24" fill="white"/>
</clipPath>
</defs>
</svg>
