<svg width="24" height="24" viewBox="0 0 24 24" fill="none" xmlns="http://www.w3.org/2000/svg">
<g clip-path="url(#clip0_1555_22890)">
<path d="M12 2.25C8.69238 2.25 6 4.95703 6 8.27344C6 9.93164 6.63867 11.877 7.66406 13.5C8.51953 14.8535 9.67969 16.0283 11.1094 16.3828C11.0684 16.4678 11.0215 16.5439 10.9688 16.6406C10.7959 16.9512 10.5 17.3789 10.5 18C10.5 18.8672 11.1064 19.3242 11.4844 19.6875C11.6748 19.8691 11.8418 20.0186 11.9297 20.1328C12.0176 20.2471 12 20.291 12 20.25C12 20.7627 11.2734 21.2344 11.2734 21.2344L11.9766 22.5703C11.9766 22.5703 13.5 21.835 13.5 20.25C13.5 19.8164 13.2949 19.4707 13.1016 19.2188C12.9082 18.9668 12.7002 18.7881 12.5156 18.6094C12.1436 18.252 12 17.9707 12 18C12 17.8945 12.0791 17.751 12.2813 17.3906C12.4131 17.1533 12.5625 16.8281 12.6563 16.4297C14.1973 16.1514 15.4336 14.9268 16.3359 13.5C17.3613 11.877 18 9.93164 18 8.27344C18 4.95703 15.3076 2.25 12 2.25L12 2.25ZM12 3.75C14.4932 3.75 16.5 5.7627 16.5 8.27344C16.5 9.52734 15.9463 11.3174 15.0703 12.7031C14.1943 14.0889 13.0576 15 12 15C10.9424 15 9.80566 14.0889 8.92969 12.7031C8.05371 11.3174 7.5 9.52734 7.5 8.27344C7.5 5.7627 9.50684 3.75 12 3.75Z" fill="black"/>
</g>
<defs>
<clipPath id="clip0_1555_22890">
<rect width="24" height="24" fill="white"/>
</clipPath>
</defs>
</svg>
