<svg width="24" height="24" viewBox="0 0 24 24" fill="none" xmlns="http://www.w3.org/2000/svg">
<g clip-path="url(#clip0_1555_22892)">
<path d="M7.25 3C5.46403 3 4 4.46403 4 6.25V8.0127C2.60594 8.14081 1.5 9.32458 1.5 10.75C1.5 11.9944 2.35851 13.012 3.5 13.3467V16.75C3.5 18.1808 4.31372 19.4299 5.5 20.0615V21.25C5.49617 21.5205 5.63828 21.7721 5.8719 21.9084C6.10553 22.0448 6.39447 22.0448 6.6281 21.9084C6.86172 21.7721 7.00383 21.5205 7 21.25V20.4873C7.08304 20.4929 7.16561 20.5 7.25 20.5H16.7578C16.8396 20.5 16.9194 20.4925 17 20.4873V21.25C16.9962 21.5205 17.1383 21.7721 17.3719 21.9084C17.6055 22.0448 17.8945 22.0448 18.1281 21.9084C18.3617 21.7721 18.5038 21.5205 18.5 21.25V20.0654C19.6881 19.4368 20.5044 18.1904 20.5078 16.7598C20.5078 16.7588 20.5078 16.7578 20.5078 16.7568L20.5049 13.3457C21.6439 13.0095 22.5 11.993 22.5 10.75C22.5 9.32458 21.3941 8.14081 20 8.0127V6.25C20 4.46403 18.536 3 16.75 3L7.25 3ZM7.25 4.5H16.75C17.725 4.5 18.5 5.27497 18.5 6.25V8.0918C17.0725 8.43366 16 9.7224 16 11.25V12.8066C15.6239 12.6123 15.1996 12.5 14.75 12.5H9.25C8.8004 12.5 8.37614 12.6123 8 12.8066V11.25C8 9.7224 6.92749 8.43366 5.5 8.0918V6.25C5.5 5.27497 6.27497 4.5 7.25 4.5ZM10.25 8C9.83579 8 9.5 8.33579 9.5 8.75C9.5 9.16421 9.83579 9.5 10.25 9.5C10.6642 9.5 11 9.16421 11 8.75C11 8.33579 10.6642 8 10.25 8ZM13.75 8C13.3358 8 13 8.33579 13 8.75C13 9.16421 13.3358 9.5 13.75 9.5C14.1642 9.5 14.5 9.16421 14.5 8.75C14.5 8.33579 14.1642 8 13.75 8ZM4.25 9.5H4.62695C4.69084 9.51062 4.75584 9.51291 4.82031 9.50683C5.76125 9.54386 6.5 10.2991 6.5 11.25V15.25V16.25V16.75C6.50004 17.1642 6.8358 17.5 7.25 17.5H16.75C17.1642 17.5 17.5 17.1642 17.5 16.75V16.25V15.25V11.25C17.5 10.2991 18.2387 9.54386 19.1797 9.50683C19.2432 9.51266 19.3072 9.51036 19.3701 9.5H19.75C20.4491 9.5 21 10.0509 21 10.75C21 11.4487 20.4499 11.9984 19.7519 12C19.3381 12.0011 19.0034 12.3372 19.0039 12.751L19.0078 16.7578C19.0037 18.0062 18.0065 19 16.7578 19H7.25C5.99825 19 5 18.0017 5 16.75V12.75C4.99996 12.3358 4.6642 12 4.25 12C3.55089 12 3 11.4491 3 10.75C3 10.0509 3.55089 9.5 4.25 9.5H4.25ZM9.25 14H14.75C15.4491 14 16 14.5509 16 15.25V16H8V15.25C8 14.5509 8.55089 14 9.25 14Z" fill="#0A0A0A"/>
</g>
<defs>
<clipPath id="clip0_1555_22892">
<rect width="24" height="24" fill="white"/>
</clipPath>
</defs>
</svg>
