<svg width="24" height="24" fill="none" xmlns="http://www.w3.org/2000/svg"><path d="M4.928 19.571a5.497 5.497 0 0 1 0-7.778l7.425-7.425a3.999 3.999 0 0 1 5.657 0 3.999 3.999 0 0 1 0 5.657L12 16.035A2.5 2.5 0 0 1 8.463 12.5l5.303-5.303 1.414 1.414-5.367 5.367c-.389.389.319 1.096.707.707l6.074-6.074a2.006 2.006 0 0 0 0-2.828 2.006 2.006 0 0 0-2.828 0l-7.425 7.424a3.504 3.504 0 0 0 0 4.95 3.504 3.504 0 0 0 4.95 0l6.718-6.718 1.414 1.415-6.718 6.717a5.497 5.497 0 0 1-7.778 0Z" fill="#404040"/></svg>