<?xml version="1.0" encoding="utf-8"?><svg viewBox="0 0 21 21" xmlns="http://www.w3.org/2000/svg" xmlns:xlink="http://www.w3.org/1999/xlink"><style>:root>svg{display:none}:root>svg:target{display:block}</style><svg fill="none" viewBox="0 0 10 5" id="arrowDown" xmlns="http://www.w3.org/2000/svg"><path fill-rule="evenodd" clip-rule="evenodd" d="M8.281.414L5.001 3.04 1.718.413a.75.75 0 10-.938 1.172l3.75 3a.75.75 0 00.938 0l3.75-3A.75.75 0 008.281.414z" fill="#616161"/></svg><svg fill="none" viewBox="0 0 5 12" id="arrowRight" xmlns="http://www.w3.org/2000/svg"><path fill-rule="evenodd" clip-rule="evenodd" d="M.231 2.172L2.753 6 .231 9.828c-.16.244-.202.574-.108.865.093.291.308.5.562.547.255.047.511-.074.672-.318l2.882-4.375c.211-.32.211-.774 0-1.094L1.357 1.078C1.108.7.655.639.344.94c-.311.302-.361.853-.113 1.23z" fill="#616161"/></svg><svg fill="none" viewBox="0 0 21 21" id="cart" xmlns="http://www.w3.org/2000/svg"><path clip-rule="evenodd" d="M5.732 18.646a.798.798 0 010 1.593.796.796 0 110-1.593zM17.453 18.646a.798.798 0 11-.001 1.595.798.798 0 010-1.595z" stroke="#222" stroke-width="1.5" stroke-linecap="round" stroke-linejoin="round"/><path d="M.865 1.385l2.166.375 1.003 11.951a1.878 1.878 0 001.872 1.722h11.367a1.88 1.88 0 001.86-1.61l.988-6.831a1.396 1.396 0 00-1.383-1.597H3.38M12.714 9.245h2.888" stroke="#222" stroke-width="1.5" stroke-linecap="round" stroke-linejoin="round"/></svg><svg fill="none" viewBox="0 0 18 18" id="instagram" xmlns="http://www.w3.org/2000/svg"><path d="M12.41.563H5.59A5.033 5.033 0 00.563 5.59v6.82a5.033 5.033 0 005.027 5.027h6.82a5.033 5.033 0 005.027-5.027V5.59A5.033 5.033 0 0012.41.563zm3.33 11.847a3.33 3.33 0 01-3.33 3.33H5.59a3.33 3.33 0 01-3.33-3.33V5.59a3.33 3.33 0 013.33-3.33h6.82a3.33 3.33 0 013.33 3.33v6.82z" fill="#fff"/><path d="M9 4.5A4.505 4.505 0 004.5 9c0 2.481 2.019 4.5 4.5 4.5s4.5-2.019 4.5-4.5S11.481 4.5 9 4.5zm0 7.25a2.75 2.75 0 110-5.5 2.75 2.75 0 010 5.5zM13.781 5.063a.844.844 0 100-1.688.844.844 0 000 1.688z" fill="#fff"/></svg></svg>