<svg width="24" height="24" viewBox="0 0 24 24" fill="none" xmlns="http://www.w3.org/2000/svg">
<g clip-path="url(#clip0_1555_22894)">
<path d="M11.748 1C8.57755 1 5.99805 3.52016 5.99805 6.61816V7.3877C5.99805 9.0362 5.55017 9.9738 5.07617 10.9668C4.57067 12.0253 3.99805 13.2245 3.99805 15.25C3.99805 17.963 4.76986 19.927 6.19336 22.6025C6.32336 22.847 6.57797 23 6.85547 23H16.6426C16.9201 23 17.1742 22.847 17.3047 22.6025C18.5477 20.266 19.498 18.2482 19.498 15.3467C19.498 13.3242 18.9269 12.1 18.4229 11.0205C17.9479 10.0015 17.498 9.0402 17.498 7.3877V6.61816C17.498 3.52016 14.9185 1 11.748 1H11.748ZM11.748 2.5C14.0515 2.5 15.998 4.38566 15.998 6.61816V7.3877C15.998 9.37269 16.5405 10.5323 17.0645 11.6543C17.144 11.8243 17.2209 11.9936 17.2969 12.1641C15.7129 12.3976 13.1136 12.4419 12.4316 10.9404C12.3096 10.6724 12.042 10.5 11.748 10.5C11.454 10.5 11.1879 10.672 11.0664 10.9395C10.3629 12.4875 7.66396 12.5343 6.08496 12.3623C6.19396 12.1078 6.31166 11.8613 6.43066 11.6123C6.95566 10.5128 7.49805 9.3757 7.49805 7.3877V6.61816C7.49805 4.38566 9.44455 2.5 11.748 2.5ZM10.248 5C9.83383 5 9.49805 5.33578 9.49805 5.75C9.49805 6.16421 9.83383 6.5 10.248 6.5C10.6623 6.5 10.998 6.16421 10.998 5.75C10.998 5.33578 10.6623 5 10.248 5ZM13.248 5C12.8338 5 12.498 5.33578 12.498 5.75C12.498 6.16421 12.8338 6.5 13.248 6.5C13.6623 6.5 13.998 6.16421 13.998 5.75C13.998 5.33578 13.6623 5 13.248 5ZM10.4619 7.5C10.3689 7.5 10.2806 7.54414 10.2256 7.61914C10.1711 7.69414 10.1556 7.79088 10.1836 7.87988C10.4361 8.53988 11.0546 9 11.7656 9C12.4766 9 13.0949 8.53998 13.3359 7.87598C13.3629 7.79098 13.3479 7.69798 13.2949 7.62598C13.2424 7.55398 13.1583 7.51172 13.0693 7.51172C12.4298 7.50022 11.1009 7.5 10.4619 7.5L10.4619 7.5ZM11.752 12.54C13.384 14.1295 16.4803 13.8221 17.8018 13.6006C17.9223 14.1006 17.998 14.6637 17.998 15.3467C17.998 17.5687 17.4149 19.1535 16.1904 21.5H7.30762C6.13262 19.2395 5.49805 17.5175 5.49805 15.25C5.49805 14.701 5.55034 14.2359 5.63184 13.8164C6.03484 13.8684 6.6342 13.9263 7.32519 13.9258C8.78369 13.9258 10.6245 13.6655 11.752 12.54H11.752ZM11.748 14.5029C11.4385 14.5029 11.1295 14.6195 10.8955 14.8535C10.6475 15.1015 10.5348 15.4347 10.5498 15.7627C10.2423 15.6472 9.89112 15.651 9.57812 15.8105C8.98863 16.111 8.75028 16.8431 9.05078 17.4326C9.21028 17.7456 9.49257 17.956 9.80957 18.043C9.60407 18.2995 9.49871 18.6354 9.55371 18.9824C9.65721 19.6364 10.2796 20.0889 10.9336 19.9854C11.2806 19.9304 11.5685 19.7262 11.749 19.4512C11.9295 19.7252 12.217 19.9294 12.5635 19.9844C13.217 20.0884 13.8399 19.6349 13.9434 18.9814C13.9984 18.6349 13.8945 18.2995 13.6895 18.043C14.006 17.956 14.2873 17.7456 14.4463 17.4326C14.7468 16.8431 14.5094 16.111 13.9199 15.8105C13.6069 15.651 13.2548 15.6467 12.9473 15.7627C12.9623 15.4347 12.8501 15.102 12.6016 14.8535C12.3676 14.6195 12.0575 14.5029 11.748 14.5029ZM11.7295 16.1875C12.3915 16.1875 12.9355 16.7316 12.9355 17.3936C12.9355 18.0556 12.3915 18.6006 11.7295 18.6006C11.068 18.6006 10.5234 18.0556 10.5234 17.3936C10.5234 16.7316 11.068 16.1875 11.7295 16.1875Z" fill="#0A0A0A"/>
</g>
<defs>
<clipPath id="clip0_1555_22894">
<rect width="24" height="24" fill="white"/>
</clipPath>
</defs>
</svg>
