<svg width="24" height="24" viewBox="0 0 24 24" fill="none" xmlns="http://www.w3.org/2000/svg">
<g clip-path="url(#clip0_1555_22895)">
<path d="M7.5 1C6.12817 1 5 2.12817 5 3.5C5 4.60814 5.74099 5.54618 6.74707 5.87012C6.58633 6.3856 6.5 6.93287 6.5 7.5C6.5 7.72557 6.51732 7.94645 6.54395 8.16504L2.94043 9.14746C2.94043 9.14779 2.94043 9.14811 2.94043 9.14844C1.79865 9.46 1 10.5047 1 11.6885C1 13.2248 2.34047 14.449 3.87109 14.3096L6.5 14.0713V16.1484C5.05912 16.582 4 17.9233 4 19.5C4 21.4241 5.57588 23 7.5 23C8.36353 23 9.1553 22.6811 9.76758 22.1572C10.4338 22.3365 11.0713 22.5 12 22.5C12.8708 22.5 13.5785 22.3602 14.2715 22.1934C14.878 22.6967 15.6555 23 16.5 23C18.4241 23 20 21.4241 20 19.5C20 17.9233 18.9409 16.582 17.5 16.1484V14.0713L20.1289 14.3096C21.6595 14.449 23 13.2248 23 11.6885C23 10.5047 22.2013 9.46002 21.0596 9.14844C21.0596 9.14811 21.0596 9.14779 21.0596 9.14746L17.4561 8.16504C17.4827 7.94645 17.5 7.72557 17.5 7.5C17.5 6.93287 17.4137 6.3856 17.2529 5.87012C18.259 5.54618 19 4.60814 19 3.5C19 2.12817 17.8718 1 16.5 1C15.4928 1 14.621 1.61039 14.2266 2.47656C13.5447 2.17249 12.7924 2 12 2C11.2076 2 10.4553 2.17249 9.77343 2.47656C9.37897 1.61039 8.50716 1 7.5 1L7.5 1ZM7.5 2.5C7.98663 2.5 8.38031 2.83058 8.47656 3.28418C8.06226 3.63116 7.7011 4.03833 7.40332 4.49121C6.89003 4.44339 6.5 4.02796 6.5 3.5C6.5 2.93883 6.93883 2.5 7.5 2.5V2.5ZM16.5 2.5C17.0612 2.5 17.5 2.93883 17.5 3.5C17.5 4.02796 17.11 4.44339 16.5967 4.49121C16.2989 4.03833 15.9377 3.63116 15.5234 3.28418C15.6197 2.83058 16.0134 2.5 16.5 2.5V2.5ZM12 3.5C14.218 3.5 16 5.28198 16 7.5C16 8.35596 15.7327 9.14522 15.2793 9.79395C14.7843 8.46001 13.5001 7.5 12 7.5C10.4999 7.5 9.21572 8.46001 8.7207 9.79395C8.26729 9.14522 8 8.35596 8 7.5C8 5.28198 9.78198 3.5 12 3.5ZM10.25 5.5C9.83579 5.5 9.5 5.83579 9.5 6.25C9.5 6.66421 9.83579 7 10.25 7C10.6642 7 11 6.66421 11 6.25C11 5.83579 10.6642 5.5 10.25 5.5ZM13.75 5.5C13.3358 5.5 13 5.83579 13 6.25C13 6.66421 13.3358 7 13.75 7C14.1642 7 14.5 6.66421 14.5 6.25C14.5 5.83579 14.1642 5.5 13.75 5.5ZM11.2578 9.14355C11.227 9.3588 11.291 9.57685 11.4334 9.74117C11.5758 9.9055 11.7826 9.99994 12 10C12.2174 9.99994 12.4242 9.9055 12.5666 9.74117C12.709 9.57684 12.773 9.3588 12.7422 9.14355C13.472 9.43169 13.9835 10.1316 13.9971 10.9668C13.4098 11.3044 12.7295 11.5 12 11.5C11.2705 11.5 10.5902 11.3044 10.0029 10.9668C10.0165 10.1316 10.528 9.43169 11.2578 9.14355ZM6.92578 9.61621C7.758 11.5997 9.72077 13 12 13C14.2792 13 16.242 11.5997 17.0742 9.61621L20.665 10.5947C21.1613 10.7301 21.5 11.1743 21.5 11.6885C21.5 12.3662 20.94 12.8779 20.2647 12.8164L16.8174 12.5029C16.6076 12.484 16.3995 12.5542 16.244 12.6963C16.0886 12.8384 16 13.0394 16 13.25V16.04C14.3108 16.2852 13 17.7459 13 19.5C13 19.9864 13.1016 20.45 13.2832 20.8721C12.8761 20.9486 12.4687 21 12 21C11.4823 21 11.1068 20.9442 10.7246 20.8564C10.9019 20.4387 11 19.9803 11 19.5C11 17.7459 9.68923 16.2852 8 16.04V13.25C8.00001 13.0394 7.91144 12.8384 7.75596 12.6963C7.60048 12.5542 7.39241 12.484 7.18262 12.5029L3.73535 12.8164C3.05998 12.8779 2.5 12.3662 2.5 11.6885C2.5 11.1743 2.83874 10.7301 3.33496 10.5947L6.92578 9.61621ZM7.5 17.5C8.61346 17.5 9.5 18.3865 9.5 19.5C9.5 20.6135 8.61345 21.5 7.5 21.5C6.38655 21.5 5.5 20.6135 5.5 19.5C5.5 18.3865 6.38655 17.5 7.5 17.5ZM16.5 17.5C17.6135 17.5 18.5 18.3865 18.5 19.5C18.5 20.6135 17.6135 21.5 16.5 21.5C15.8119 21.5 15.2116 21.1601 14.8525 20.6387L14.8223 20.5137C14.8085 20.517 14.7988 20.5191 14.7852 20.5225C14.6077 20.2232 14.5 19.8767 14.5 19.5C14.5 18.3865 15.3865 17.5 16.5 17.5Z" fill="#0A0A0A"/>
</g>
<defs>
<clipPath id="clip0_1555_22895">
<rect width="24" height="24" fill="white"/>
</clipPath>
</defs>
</svg>
