<svg width="24" height="24" viewBox="0 0 24 24" fill="none" xmlns="http://www.w3.org/2000/svg">
<g clip-path="url(#clip0_1555_22897)">
<path d="M8.626 2.00684C8.47858 2.01792 8.33061 2.04333 8.18264 2.08301C7.2689 2.32808 6.62783 3.07442 6.44632 3.94629C5.57464 4.12804 4.82805 4.76854 4.58303 5.68262C4.47717 6.07759 4.47997 6.47666 4.56741 6.84961C4.50873 6.879 4.44893 6.9072 4.39456 6.94239C3.76002 7.353 3.34412 8.18177 3.56546 9.04297L5.15725 15.2354L2.51175 17.8799C1.83528 18.5564 1.83528 19.6761 2.51175 20.3525L3.64651 21.4873C4.32298 22.1638 5.4427 22.1638 6.11917 21.4873L8.76468 18.8428L14.9473 20.4326C15.8325 20.6603 16.6886 20.2125 17.0772 19.543C17.0982 19.5067 17.1133 19.4666 17.1319 19.4287C17.5103 19.5206 17.9158 19.5247 18.3174 19.417C19.2312 19.1719 19.8719 18.4254 20.0537 17.5537C20.9254 17.3721 21.6719 16.7312 21.917 15.8174C22.1623 14.903 21.8355 13.975 21.1709 13.3818C21.4456 12.5471 21.271 11.5956 20.6231 10.9277C20.7432 10.7254 20.8421 10.506 20.9063 10.2666V10.2656C21.19 9.20629 20.7834 8.14111 19.9883 7.48048C20.3464 6.5108 20.1657 5.38498 19.3907 4.60938C18.6152 3.83398 17.4896 3.65336 16.5196 4.01173C16.066 3.46599 15.4327 3.0935 14.7246 3.01661C14.4011 2.98147 14.0666 3.00483 13.7344 3.09376C13.4946 3.15795 13.2749 3.25662 13.0723 3.37696C12.4041 2.7287 11.453 2.55422 10.6182 2.82911C10.217 2.37963 9.66704 2.08009 9.06448 2.01466C8.92032 1.999 8.77343 1.99576 8.626 2.00684L8.626 2.00684ZM8.74319 3.50196C9.14386 3.47005 9.51258 3.69983 9.67092 4.0752C9.76088 4.28841 9.94422 4.44816 10.1677 4.50809C10.3912 4.56803 10.6299 4.52144 10.8145 4.38184C11.1858 4.10092 11.6988 4.12063 12.0391 4.46094C12.0391 4.46127 12.0391 4.46159 12.0391 4.46192C12.0436 4.46638 12.0464 4.47202 12.0508 4.47657C11.923 4.72827 11.8288 4.998 11.7803 5.28028C10.7614 5.455 9.87637 6.17494 9.5928 7.23438C9.56009 7.35633 9.54425 7.47869 9.52932 7.60059C9.23829 7.53692 8.93692 7.5 8.62503 7.5C7.88312 7.5 7.56536 7.62686 7.2676 7.70996C7.09029 7.5259 6.91034 7.33123 6.65042 7.10059C6.4951 6.96284 6.32351 6.86219 6.14553 6.78809C6.01345 6.57813 5.96286 6.3302 6.03225 6.07129C6.15695 5.60607 6.5904 5.3328 7.05276 5.39063C7.28264 5.41957 7.513 5.34064 7.67683 5.17681C7.84067 5.01297 7.91959 4.78262 7.89065 4.55274C7.8326 4.09088 8.10567 3.65685 8.57034 3.53223C8.62837 3.51666 8.68595 3.50651 8.74319 3.50196V3.50196ZM14.3496 4.50391C14.8769 4.46246 15.3646 4.76481 15.5723 5.25782C15.6623 5.47102 15.8456 5.63077 16.0691 5.69071C16.2926 5.75064 16.5313 5.70405 16.7158 5.56446C17.204 5.19483 17.8838 5.22366 18.3301 5.66992C18.7767 6.11679 18.8049 6.79573 18.4356 7.28321C18.2955 7.46768 18.2486 7.7065 18.3083 7.93027C18.3681 8.15404 18.5279 8.33765 18.7412 8.42774C19.3053 8.66572 19.6216 9.26814 19.458 9.87793C19.4577 9.87793 19.4574 9.87793 19.4571 9.87793C19.2939 10.4877 18.7201 10.8515 18.1133 10.7754C17.8834 10.7465 17.6531 10.8254 17.4892 10.9892C17.3254 11.153 17.2465 11.3834 17.2754 11.6133C17.3515 12.2198 16.9877 12.7941 16.378 12.958C16.1532 13.018 15.9334 13.0083 15.7246 12.9453C15.0639 12.0126 14.0372 11.3513 12.8565 11.1436C12.6487 9.96283 11.9874 8.93609 11.0547 8.27539C10.9915 8.06667 10.9818 7.84763 11.042 7.62305C11.042 7.62272 11.042 7.6224 11.042 7.62207C11.2052 7.01235 11.78 6.64849 12.3867 6.72461C12.6164 6.75349 12.8466 6.67469 13.0104 6.51109C13.1742 6.34749 13.2532 6.11742 13.2246 5.8877C13.1488 5.28048 13.5124 4.70615 14.1221 4.54297C14.1984 4.52256 14.2743 4.50983 14.3496 4.50391L14.3496 4.50391ZM15.25 7.5C14.5595 7.5 14 8.0595 14 8.75C14 9.4405 14.5595 10 15.25 10C15.9405 10 16.5 9.4405 16.5 8.75C16.5 8.0595 15.9405 7.5 15.25 7.5ZM5.42776 8.11719C5.49833 8.11634 5.57029 8.14727 5.6553 8.22266C5.91786 8.45564 6.45608 9.01661 6.45608 9.01661C6.65651 9.22784 6.96108 9.30398 7.23733 9.21192C7.23733 9.21192 7.89288 9 8.62503 9C10.1896 9 11.4436 10.2294 11.4942 11.7803C11.5069 12.1756 11.8244 12.4932 12.2198 12.5059C13.7706 12.5565 15 13.8104 15 15.375C15 16.1071 14.7881 16.7627 14.7881 16.7627C14.6971 17.0361 14.7707 17.3375 14.9776 17.5381C14.9776 17.5381 15.4764 18.0235 15.7178 18.2793C15.8985 18.471 15.8724 18.6297 15.7793 18.79C15.6862 18.9504 15.5751 19.0448 15.3213 18.9795C15.321 18.9795 15.3207 18.9795 15.3203 18.9795L8.88674 17.3252L6.6758 15.1152L5.0176 8.66895C4.95944 8.44265 5.05389 8.30219 5.20998 8.20118C5.28803 8.15067 5.35719 8.11804 5.42776 8.11719H5.42776ZM19.5244 11.9482C19.5292 11.9528 19.5344 11.9563 19.5391 11.9609C19.8795 12.3014 19.8993 12.8144 19.6182 13.1856C19.4786 13.3701 19.432 13.6088 19.4919 13.8323C19.5519 14.0558 19.7116 14.2391 19.9248 14.3291C20.3538 14.5101 20.5923 14.9654 20.4678 15.4297C20.3432 15.8943 19.9097 16.1672 19.4473 16.1094C19.2174 16.0804 18.9871 16.1594 18.8232 16.3232C18.6594 16.487 18.5805 16.7174 18.6094 16.9473C18.6672 17.4093 18.3934 17.8432 17.9287 17.9678C17.6578 18.0404 17.3984 17.9802 17.1836 17.834C17.0981 17.6263 16.9764 17.4279 16.8096 17.251C16.8093 17.2507 16.8089 17.2503 16.8086 17.25C16.6144 17.0441 16.4583 16.8954 16.2901 16.7305C16.3733 16.4322 16.5 16.1159 16.5 15.375C16.5 15.0631 16.4631 14.7617 16.3994 14.4707C16.521 14.4559 16.643 14.4397 16.7647 14.4072C16.765 14.4072 16.7653 14.4072 16.7656 14.4072C17.8247 14.1232 18.545 13.2385 18.7198 12.2197C19.0024 12.1712 19.2724 12.0763 19.5244 11.9482H19.5244ZM5.97659 16.5371L7.46194 18.0225L5.05862 20.4268C4.95509 20.5303 4.81059 20.5303 4.70706 20.4268L3.57327 19.292C3.46974 19.1885 3.46974 19.044 3.57327 18.9404L5.97659 16.5371Z" fill="#0A0A0A"/>
</g>
<defs>
<clipPath id="clip0_1555_22897">
<rect width="24" height="24" fill="white"/>
</clipPath>
</defs>
</svg>
