<svg width="24" height="24" viewBox="0 0 24 24" fill="none" xmlns="http://www.w3.org/2000/svg">
<g clip-path="url(#clip0_1555_22896)">
<path d="M8.5 8.5C6.58308 8.5 5.55077 9.67495 4.69531 10.3271C4.26758 10.6532 3.88507 10.8737 3.35449 10.9531C2.82391 11.0325 2.10118 10.968 1.02051 10.5508C0.789865 10.4616 0.530101 10.4919 0.326117 10.6316C0.122131 10.7714 0.000135349 11.0027 0 11.25C0 13.3828 1.39411 14.7998 2.92187 15.543C4.44964 16.2862 6.14362 16.5 7.25 16.5C8.87125 16.5 10.1695 16.1089 11.0879 15.3887C11.4864 15.0762 11.767 14.6776 12 14.2607C12.233 14.6776 12.5136 15.0762 12.9121 15.3887C13.8305 16.1089 15.1287 16.5 16.75 16.5C17.8564 16.5 19.5504 16.2862 21.0781 15.543C22.6059 14.7998 24 13.3828 24 11.25C23.9999 11.0027 23.8779 10.7714 23.6739 10.6316C23.4699 10.4919 23.2101 10.4616 22.9795 10.5508C21.8988 10.968 21.1761 11.0325 20.6455 10.9531C20.1149 10.8737 19.7324 10.6532 19.3047 10.3271C18.4492 9.67495 17.4169 8.5 15.5 8.5C13.968 8.5 12.6713 9.40019 12 10.6729C11.3287 9.40019 10.032 8.5 8.5 8.5L8.5 8.5ZM8.5 10C9.88971 10 11 11.1103 11 12.5C11 13.1886 10.7437 13.7519 10.1621 14.208C9.58053 14.6641 8.62875 15 7.25 15C6.35638 15 4.80036 14.7889 3.57813 14.1943C2.66585 13.7506 1.95871 13.1718 1.6582 12.2773C2.36729 12.4404 3.02114 12.5196 3.57617 12.4365C4.42675 12.3092 5.0821 11.9178 5.60449 11.5195C6.64929 10.723 7.16692 10 8.5 10ZM15.5 10C16.8331 10 17.3507 10.723 18.3955 11.5195C18.9179 11.9178 19.5733 12.3092 20.4238 12.4365C20.9789 12.5196 21.6327 12.4404 22.3418 12.2773C22.0413 13.1718 21.3341 13.7506 20.4219 14.1943C19.1996 14.7889 17.6436 15 16.75 15C15.3712 15 14.4195 14.6641 13.8379 14.208C13.2563 13.7519 13 13.1886 13 12.5C13 11.1103 14.1103 10 15.5 10Z" fill="#0A0A0A"/>
</g>
<defs>
<clipPath id="clip0_1555_22896">
<rect width="24" height="24" fill="white"/>
</clipPath>
</defs>
</svg>
