<svg width="123" height="48" viewBox="0 0 123 48" fill="none" xmlns="http://www.w3.org/2000/svg">
<path d="M25.429 19.529C25.429 24.7918 21.2332 29.0581 16.0574 29.0581C10.8815 29.0581 6.68571 24.7918 6.68571 19.529C6.68571 14.2663 10.8815 10 16.0574 10C21.2332 10 25.429 14.2663 25.429 19.529Z" fill="url(#paint0_linear_1674_25855)"/>
<path d="M28.3578 24.2936C29.5292 24.2936 30.1149 26.3781 30.1149 28.7603C30.1149 33.5249 25.1363 37.9916 20.7433 37.9916C18.6932 37.9916 17.8146 36.5027 17.8146 35.0138C17.8146 33.1389 19.2423 32.3405 21.3759 31.1472C21.5509 31.0493 21.7307 30.9488 21.9147 30.8448C24.5505 29.3559 25.722 27.5692 26.6006 26.0803C26.7473 25.8316 26.8355 25.5846 26.9167 25.357C27.1307 24.7574 27.2962 24.2936 28.3578 24.2936Z" fill="url(#paint1_linear_1674_25855)"/>
<path d="M2 28.7603C2 26.3781 2.58573 24.2936 3.75719 24.2936C4.81872 24.2936 4.98426 24.7574 5.19825 25.357C5.27945 25.5845 5.36762 25.8316 5.51437 26.0803C6.39296 27.5692 7.56442 29.3559 10.2002 30.8448C10.3843 30.9488 10.564 31.0493 10.739 31.1472C12.8727 32.3405 14.3003 33.1389 14.3003 35.0138C14.3003 36.5027 13.4217 37.9916 11.3717 37.9916C6.97869 37.9916 2 33.5249 2 28.7603Z" fill="url(#paint2_linear_1674_25855)"/>
<path d="M40.3438 35.9844C40.3438 37.6562 41.2969 38.7344 42.9219 38.7344C44.5625 38.7344 45.5 37.6562 45.5 35.9844V34H59.4531V35.9844C59.4531 37.6562 60.3906 38.7344 62.0312 38.7344C63.6562 38.7344 64.5938 37.6562 64.5938 35.9844V32.1562C64.5938 30.4688 63.6406 29.375 62.125 29.375H61.7812V14.4531C61.7812 12.5469 60.7344 11.4531 58.9219 11.4531H47.7344C45.7656 11.4531 44.6406 12.5312 44.5156 14.5625L43.9844 23.4375C43.7812 26.7812 43.4844 28.4844 42.1094 29.3281H42.0469C40.8281 29.6719 40.3438 30.5156 40.3438 32.4062V35.9844ZM47.7656 29.375V29.25C48.6875 28.2031 49.0469 26.5156 49.2188 23.9375L49.7344 16.0469H56.0625V29.375H47.7656ZM71.305 34.25C73.3519 34.25 75.43 33.2969 76.3519 31.5781H76.4613V31.9688C76.6175 33.5938 77.6644 34.3594 79.1331 34.3594C80.7113 34.3594 81.8519 33.4688 81.8519 31.5781V22.3281C81.8519 18.9062 78.8363 16.5781 74.2894 16.5781C70.3831 16.5781 67.5394 17.8594 66.8206 19.9688C66.6956 20.2969 66.6488 20.5781 66.6488 20.9688C66.6488 22.1562 67.5863 22.9844 68.9144 22.9844C69.7581 22.9844 70.4613 22.6719 71.1019 22.0312C72.1644 20.875 72.8206 20.5312 74.0081 20.5312C75.4613 20.5312 76.43 21.2812 76.43 22.6406V23.6094L72.4456 23.8438C68.0394 24.1094 65.5863 25.8906 65.5863 29.0781C65.5863 32.1562 68.1331 34.25 71.305 34.25ZM73.2738 30.4375C71.9456 30.4375 71.055 29.7812 71.055 28.7031C71.055 27.7031 71.8831 27.0312 73.3363 26.9219L76.43 26.7188V27.8906C76.43 29.4062 74.9613 30.4375 73.2738 30.4375ZM87.2819 40.1094C88.8913 40.1094 90.0475 39.1719 90.0475 37.2344V31.0938H90.1569C90.985 33.0625 92.86 34.25 95.36 34.25C99.5944 34.25 102.079 31.0469 102.079 25.5C102.079 19.9375 99.5788 16.7344 95.2819 16.7344C92.8288 16.7344 90.985 17.9688 90.1256 20.0156H90.0163V19.4844C90.0163 17.5469 88.8756 16.625 87.2663 16.625C85.6413 16.625 84.5006 17.5469 84.5006 19.4688V37.2344C84.5006 39.1719 85.6569 40.1094 87.2819 40.1094ZM93.2194 29.9219C91.2663 29.9219 90.0319 28.2031 90.0163 25.5C90.0319 22.8125 91.2819 21.0625 93.2194 21.0625C95.1725 21.0625 96.4225 22.7969 96.4225 25.5C96.4225 28.2031 95.1881 29.9219 93.2194 29.9219ZM107.337 34.3594C108.868 34.3594 109.774 33.8594 110.493 32.6094L115.587 24.2031H115.712V31.5781C115.712 33.4375 116.821 34.3594 118.399 34.3594C119.978 34.3594 121.103 33.4375 121.103 31.5625V19.6094C121.103 17.7812 119.899 16.625 118.024 16.625C116.524 16.625 115.618 17.125 114.868 18.375L109.806 26.5938H109.681V19.4219C109.681 17.5469 108.571 16.625 106.978 16.625C105.399 16.625 104.274 17.5469 104.274 19.4062V31.375C104.274 33.2031 105.321 34.3594 107.337 34.3594Z" fill="url(#paint3_linear_1674_25855)"/>
<defs>
<linearGradient id="paint0_linear_1674_25855" x1="16.0575" y1="10" x2="16.0575" y2="37.9916" gradientUnits="userSpaceOnUse">
<stop stop-color="#957CFF"/>
<stop offset="1" stop-color="#7F63F5"/>
</linearGradient>
<linearGradient id="paint1_linear_1674_25855" x1="16.0575" y1="10" x2="16.0575" y2="37.9916" gradientUnits="userSpaceOnUse">
<stop stop-color="#957CFF"/>
<stop offset="1" stop-color="#7F63F5"/>
</linearGradient>
<linearGradient id="paint2_linear_1674_25855" x1="16.0575" y1="10" x2="16.0575" y2="37.9916" gradientUnits="userSpaceOnUse">
<stop stop-color="#957CFF"/>
<stop offset="1" stop-color="#7F63F5"/>
</linearGradient>
<linearGradient id="paint3_linear_1674_25855" x1="81.5" y1="7" x2="81.5" y2="39" gradientUnits="userSpaceOnUse">
<stop stop-color="#957CFF"/>
<stop offset="1" stop-color="#7F63F5"/>
</linearGradient>
</defs>
</svg>
