<svg width="24" height="24" viewBox="0 0 24 24" fill="none" xmlns="http://www.w3.org/2000/svg">
<g clip-path="url(#clip0_1555_22898)">
<path d="M14.9707 2.00488C14.3839 2.00488 13.8152 2.23425 13.3369 2.62109C12.7094 2.1251 11.8742 1.90376 11.0459 2.12598C10.6122 2.24219 10.2593 2.48628 9.95311 2.77734C9.0046 2.10924 7.74076 2.13408 6.82908 2.87109C6.20156 2.37473 5.36572 2.15369 4.53709 2.37598C3.23538 2.72484 2.45877 4.01839 2.66405 5.32324C1.92057 5.61854 1.31164 6.23234 1.08983 7.06055C0.804487 8.12579 1.22994 9.22319 2.06834 9.84766C1.78525 10.0511 1.53719 10.3114 1.35155 10.6328C0.677287 11.8004 1.04434 13.2637 2.11229 14.041C1.79522 14.7757 1.79888 15.6401 2.22753 16.3828C2.9017 17.5503 4.3525 17.9645 5.55956 17.4287C6.03726 18.0709 6.78672 18.501 7.64452 18.501C8.86753 18.501 9.86455 17.6343 10.1445 16.4932C10.1795 16.4979 10.2147 16.5002 10.25 16.5C10.6193 16.5 11.0367 16.7503 11.4892 17.3135C11.9418 17.8767 12.3695 18.699 12.7129 19.5352C13.3997 21.2074 13.7666 22.9072 13.7666 22.9072C13.7678 22.9118 13.7692 22.9164 13.7705 22.9209C13.7734 22.9337 13.7767 22.9464 13.7803 22.959C13.783 22.9682 13.7859 22.9773 13.7891 22.9863C13.7941 23.0018 13.7996 23.0171 13.8057 23.0322C13.8097 23.0421 13.8139 23.0519 13.8183 23.0615C13.8224 23.0701 13.8267 23.0785 13.831 23.0869C13.8398 23.1045 13.8492 23.1218 13.8594 23.1387C13.8715 23.1588 13.8845 23.1784 13.8984 23.1973C13.902 23.2019 13.9055 23.2064 13.9092 23.2109C13.9198 23.2247 13.9308 23.238 13.9424 23.251C13.9481 23.2569 13.954 23.2628 13.96 23.2686C13.9737 23.2831 13.988 23.2971 14.0029 23.3106C14.0032 23.3109 14.0036 23.3112 14.0039 23.3115C14.0215 23.3267 14.0397 23.341 14.0586 23.3545C14.0596 23.3555 14.0605 23.3565 14.0615 23.3574C14.0641 23.3591 14.0667 23.3607 14.0693 23.3623C14.0846 23.3733 14.1002 23.3837 14.1162 23.3936C14.1262 23.3993 14.1363 23.4049 14.1465 23.4102C14.1568 23.4156 14.1672 23.4208 14.1777 23.4258C14.1912 23.4321 14.2049 23.4379 14.2187 23.4434C14.2284 23.4475 14.2382 23.4514 14.248 23.4551C14.2577 23.4585 14.2675 23.4618 14.2773 23.4648C14.2938 23.47 14.3104 23.4745 14.3271 23.4785C14.3346 23.4803 14.3421 23.4819 14.3496 23.4834C14.3632 23.4864 14.3769 23.489 14.3906 23.4912C14.4065 23.4934 14.4225 23.495 14.4385 23.4961C14.4485 23.497 14.4586 23.4976 14.4687 23.4981C14.4811 23.4987 14.4935 23.499 14.5058 23.499C14.5169 23.4989 14.528 23.4986 14.539 23.4981C14.5557 23.4973 14.5723 23.496 14.5889 23.4941C14.5973 23.493 14.6058 23.4917 14.6142 23.4902C14.6329 23.4874 14.6515 23.4838 14.6699 23.4795C14.6728 23.4789 14.6758 23.4782 14.6787 23.4775C14.68 23.4772 14.6813 23.4769 14.6826 23.4766C14.7 23.472 14.7173 23.4668 14.7344 23.4609C14.7439 23.4579 14.7533 23.4546 14.7627 23.4512C14.7742 23.4469 14.7856 23.4423 14.7969 23.4375C14.8077 23.4329 14.8185 23.428 14.8291 23.4229C14.841 23.417 14.8527 23.4108 14.8642 23.4043C14.8758 23.3981 14.8872 23.3916 14.8984 23.3848C14.9094 23.3776 14.9201 23.3701 14.9306 23.3623C14.9366 23.3585 14.9424 23.3546 14.9482 23.3506C14.9508 23.3483 14.9535 23.346 14.956 23.3438C14.9667 23.3356 14.9771 23.3271 14.9873 23.3184C14.9969 23.3105 15.0064 23.3023 15.0156 23.2939C15.0263 23.2835 15.0368 23.2728 15.0469 23.2617C15.0511 23.2575 15.0554 23.2533 15.0596 23.249C15.0612 23.2471 15.0628 23.2451 15.0644 23.2432C15.0753 23.2308 15.0857 23.2181 15.0957 23.2051C15.0993 23.2006 15.1029 23.196 15.1064 23.1914C15.1081 23.1888 15.1097 23.1862 15.1113 23.1836C15.1184 23.174 15.1252 23.1642 15.1318 23.1543C15.1318 23.1543 19.1242 16.9173 23.3535 11.1953C23.521 10.9683 23.5469 10.6664 23.4205 10.4142C23.2942 10.1619 23.037 10.0019 22.7549 10C22.712 9.9996 22.6692 10.0029 22.6269 10.0098C18.8768 10.6348 16.6725 13.0223 15.4219 15.541C15.3188 14.5927 15.1533 13.6695 14.8359 12.8555C15.1228 12.881 15.4181 12.8604 15.7129 12.7813C17.0154 12.4324 17.7908 11.1381 17.5849 9.83301C18.3288 9.53784 18.9383 8.92517 19.1601 8.09668C19.509 6.79435 18.7761 5.47513 17.543 5.00098C17.6593 4.20917 17.4327 3.37509 16.8262 2.76856C16.3168 2.25917 15.644 2.00488 14.9707 2.00488L14.9707 2.00488ZM14.9707 3.49512C15.2571 3.49512 15.543 3.60649 15.7656 3.8291C16.1362 4.19967 16.1868 4.74686 15.9404 5.17871C15.8065 5.413 15.8088 5.70114 15.9464 5.93327C16.084 6.1654 16.3357 6.30574 16.6055 6.30078C16.7325 6.29853 16.8308 6.3075 16.915 6.33008C17.5241 6.49323 17.8741 7.09886 17.7109 7.70801C17.5754 8.21394 17.1263 8.53177 16.6299 8.53418C16.3602 8.53564 16.1121 8.68174 15.98 8.91683C15.8479 9.15193 15.8522 9.43983 15.9912 9.6709C16.0567 9.77998 16.0975 9.86975 16.1201 9.9541C16.2833 10.5633 15.9333 11.1689 15.3242 11.332C14.8185 11.4678 14.3186 11.2381 14.0683 10.8096C13.9323 10.5764 13.6814 10.4342 13.4114 10.4375C13.1415 10.4407 12.8941 10.5888 12.7637 10.8252C12.7029 10.9353 12.6455 11.0165 12.584 11.0781C12.1387 11.5233 11.4384 11.5233 10.9931 11.0781C10.6226 10.7076 10.572 10.1604 10.8183 9.72852C10.9522 9.49423 10.9499 9.20609 10.8123 8.97396C10.6748 8.74183 10.4231 8.60149 10.1533 8.60645C10.0262 8.6087 9.927 8.59875 9.84276 8.57617C9.23367 8.41302 8.88466 7.80739 9.04783 7.19824C9.18333 6.69232 9.63147 6.37448 10.1279 6.37207C10.3974 6.37075 10.6455 6.22493 10.7778 5.99008C10.91 5.75524 10.9061 5.46749 10.7676 5.23633C10.702 5.12725 10.6613 5.03748 10.6387 4.95312C10.4755 4.3442 10.826 3.73828 11.4346 3.5752C11.9411 3.43932 12.44 3.66885 12.6904 4.09766C12.8264 4.33088 13.0773 4.47299 13.3473 4.46976C13.6173 4.46653 13.8647 4.31844 13.9951 4.08203C14.0559 3.9719 14.1132 3.89068 14.1748 3.8291C14.3974 3.60649 14.6843 3.49512 14.9707 3.49512L14.9707 3.49512ZM8.43358 3.75488C8.70998 3.75313 8.98779 3.8559 9.21092 4.05957C9.13037 4.38812 9.11807 4.72514 9.17283 5.07324C8.42935 5.36853 7.82043 5.98233 7.59862 6.81055C7.52754 7.07591 7.51153 7.34017 7.52537 7.59961C7.07954 7.22937 6.51621 7 5.89354 7C4.73225 7 3.77068 7.78045 3.43651 8.83594C3.40497 8.83122 3.36178 8.83363 3.33397 8.82617C2.72551 8.6631 2.37588 8.05739 2.53905 7.44824C2.67455 6.94231 3.12366 6.62448 3.6201 6.62207C3.88945 6.6204 4.13722 6.47444 4.26925 6.23966C4.40127 6.00488 4.39727 5.71734 4.25877 5.48633C4.19325 5.37725 4.15248 5.28748 4.12987 5.20312C3.96676 4.5942 4.31724 3.98828 4.92577 3.82519C5.43227 3.68932 5.93121 3.91885 6.18162 4.34765C6.31766 4.58088 6.56854 4.72299 6.83852 4.71976C7.1085 4.71652 7.3559 4.56844 7.48631 4.33203C7.54709 4.22189 7.60442 4.14068 7.666 4.0791C7.88217 3.86293 8.15717 3.75664 8.43358 3.75488L8.43358 3.75488ZM13.5 6.25C13.1801 6.25 12.8604 6.37196 12.6162 6.61621C12.1277 7.10471 12.1277 7.89529 12.6162 8.38379C13.1047 8.87229 13.8953 8.87229 14.3838 8.38379C14.8723 7.89529 14.8718 7.10471 14.3838 6.61621C14.1395 6.37196 13.8199 6.25 13.5 6.25ZM5.89354 8.5C6.41755 8.5 6.84052 8.85073 6.97166 9.33008C7.04259 9.59017 7.24765 9.79219 7.50876 9.85923C7.76988 9.92628 8.0469 9.84804 8.23436 9.6543C8.32056 9.56519 8.39458 9.50396 8.46873 9.45996C8.68916 9.64296 8.93688 9.79824 9.21483 9.90527C9.09847 10.6971 9.32604 11.5321 9.9326 12.1387C10.1843 12.3904 10.4761 12.5727 10.7861 12.6963L10.7158 12.7656C10.7636 12.8144 10.8064 12.8679 10.8437 12.9229C11.0771 13.2673 11.1135 13.727 10.8877 14.1182C10.6257 14.5717 10.1099 14.7619 9.62987 14.6357C9.36882 14.5672 9.09107 14.6442 8.90256 14.8373C8.71405 15.0305 8.64385 15.31 8.71873 15.5693C8.75371 15.6905 8.76951 15.7884 8.76951 15.876C8.76951 16.5061 8.27465 17.001 7.64451 17.001C7.1205 17.001 6.69851 16.6493 6.56737 16.1699C6.49618 15.91 6.29103 15.7082 6.02994 15.6414C5.76886 15.5746 5.49199 15.6529 5.30467 15.8467C5.21588 15.9385 5.13883 16.0007 5.06248 16.0449C4.51647 16.3593 3.84157 16.1787 3.52635 15.6328C3.26419 15.1786 3.35669 14.6368 3.70604 14.2842C3.89542 14.0927 3.96758 13.8143 3.89511 13.5549C3.82264 13.2955 3.61667 13.0949 3.35545 13.0293C3.23071 12.9981 3.13783 12.963 3.06346 12.9199C2.5172 12.6045 2.33604 11.9288 2.65135 11.3828C2.91328 10.9293 3.42909 10.7381 3.90916 10.8643C4.17021 10.9328 4.44796 10.8558 4.63647 10.6627C4.82498 10.4695 4.89518 10.19 4.8203 9.93067C4.78532 9.80953 4.76854 9.71258 4.76854 9.625C4.76854 8.99486 5.2634 8.5 5.89354 8.5L5.89354 8.5ZM6.74998 11.5C6.05948 11.5 5.49998 12.0595 5.49998 12.75C5.49998 13.4405 6.05948 14 6.74998 14C7.44048 14 7.99998 13.4405 7.99998 12.75C7.99998 12.0595 7.44048 11.5 6.74998 11.5ZM20.8838 12.1055C18.584 15.3078 16.8445 17.8274 15.5849 19.7393C15.773 18.7683 16.0439 17.7134 16.499 16.6768C17.3311 14.7814 18.6743 13.0546 20.8838 12.1055ZM12.9883 12.5693C13.7935 13.6687 14.1233 16.1769 14.0937 18.3965C14.0902 18.6596 14.0646 18.6329 14.0547 18.8848C13.6856 17.9985 13.2426 17.1001 12.6592 16.374C12.3815 16.0285 12.0592 15.7132 11.6963 15.4697C11.8843 15.2987 12.0524 15.1003 12.1865 14.8682C12.1868 14.8682 12.1872 14.8682 12.1875 14.8682C12.5654 14.2136 12.6261 13.4588 12.4189 12.7842C12.6142 12.7324 12.8064 12.6657 12.9883 12.5693Z" fill="#0A0A0A"/>
</g>
<defs>
<clipPath id="clip0_1555_22898">
<rect width="24" height="24" fill="white"/>
</clipPath>
</defs>
</svg>
