<svg width="24" height="24" viewBox="0 0 24 24" fill="none" xmlns="http://www.w3.org/2000/svg">
<g clip-path="url(#clip0_1555_22893)">
<path d="M6.70312 2.00293C6.57177 2.00825 6.4403 2.01904 6.30859 2.03516C5.78177 2.09966 5.25425 2.24966 4.74707 2.47754C2.71836 3.38908 1 5.61305 1 8.79981C1.00003 9.0783 1.15435 9.33385 1.4008 9.46353C1.64725 9.59321 1.94527 9.57567 2.17481 9.41797C2.73504 9.03313 3.37534 9.09262 4.20801 9.3252C5.04067 9.55778 5.9115 10 6.89356 10C8.06066 10 9.23719 9.51642 10.0537 8.6211C10.245 8.42501 10.3141 8.14028 10.2341 7.87832C10.1541 7.61637 9.9377 7.41884 9.66954 7.36304C9.40139 7.30724 9.12414 7.40205 8.94629 7.61036C8.44681 8.15804 7.62645 8.5 6.89356 8.5C6.47262 8.5 5.59067 8.15441 4.61133 7.88086C4.01753 7.715 3.33165 7.61668 2.64356 7.70801C2.97014 5.71686 4.09017 4.4173 5.36231 3.84571C6.11201 3.50885 6.89296 3.42395 7.54102 3.56836C7.71728 3.60764 7.85694 3.70217 8.0127 3.77247C6.21191 4.1256 5.18066 5.26172 5.18066 5.26172C5.00317 5.46475 4.94833 5.74743 5.03702 6.0021C5.12571 6.25677 5.34429 6.44423 5.6095 6.49308C5.87471 6.54192 6.14573 6.44465 6.31934 6.23829C6.31934 6.23829 7.46647 4.80197 9.86621 5.23829C9.87983 5.24062 9.8935 5.24257 9.90723 5.24414C9.90723 5.24414 10.1244 5.24744 10.4697 5.59278C10.815 5.9381 11.25 6.64286 11.25 8.25V12H6.25H5.25C4.97952 11.9962 4.72794 12.1383 4.59158 12.3719C4.45523 12.6055 4.45523 12.8945 4.59158 13.1281C4.72794 13.3617 4.97952 13.5038 5.25 13.5H5.5791L6.30664 20.0537C6.46063 21.4403 7.64486 22.5 9.04004 22.5H14.9609C16.356 22.5 17.5397 21.4397 17.6943 20.0537L18.4209 13.5H18.75C19.0205 13.5038 19.2721 13.3617 19.4084 13.1281C19.5448 12.8945 19.5448 12.6055 19.4084 12.3719C19.2721 12.1383 19.0205 11.9962 18.75 12H17.75H12.75V8.25C12.75 6.64286 13.185 5.9381 13.5303 5.59278C13.8752 5.24789 14.0913 5.24415 14.0918 5.24414C14.0921 5.24414 14.0924 5.24414 14.0928 5.24414C14.1065 5.24257 14.1202 5.24062 14.1338 5.23829C16.5335 4.80197 17.6807 6.23829 17.6807 6.23829C17.8543 6.44464 18.1253 6.54192 18.3905 6.49308C18.6557 6.44423 18.8743 6.25677 18.963 6.0021C19.0517 5.74743 18.9968 5.46475 18.8193 5.26172C18.8193 5.26172 17.7881 4.1256 15.9873 3.77247C16.1431 3.70217 16.2827 3.60764 16.459 3.56836C17.107 3.42395 17.888 3.50885 18.6377 3.84571C19.9098 4.4173 21.0299 5.71686 21.3564 7.70801C20.6684 7.61668 19.9825 7.715 19.3887 7.88086C18.4093 8.15441 17.5274 8.5 17.1064 8.5C16.3735 8.5 15.5532 8.15804 15.0537 7.61036C14.8759 7.40205 14.5986 7.30724 14.3305 7.36304C14.0623 7.41884 13.8459 7.61637 13.7659 7.87832C13.6859 8.14028 13.755 8.42501 13.9463 8.6211C14.7628 9.51642 15.9393 10 17.1064 10C18.0885 10 18.9593 9.55778 19.792 9.3252C20.6247 9.09262 21.265 9.03313 21.8252 9.41797C22.0547 9.57567 22.3527 9.59321 22.5992 9.46353C22.8457 9.33385 23 9.0783 23 8.79981C23 5.61305 21.2816 3.38908 19.2529 2.47754C18.2386 2.02178 17.143 1.87938 16.1328 2.1045C15.188 2.31506 14.3443 2.90381 13.7842 3.78125C13.7387 3.79399 13.6946 3.811 13.6523 3.83203C13.6517 3.83236 13.651 3.83268 13.6504 3.83301C13.3899 3.90314 12.9469 4.05502 12.4697 4.53223C12.29 4.71195 12.1564 5.03614 12 5.29786C11.8436 5.03614 11.71 4.71195 11.5303 4.53223C11.051 4.05298 10.6059 3.9014 10.3467 3.83203C10.3047 3.81105 10.2609 3.79405 10.2158 3.78125C9.65572 2.90381 8.81203 2.31505 7.86719 2.1045C7.48838 2.02008 7.09719 1.98698 6.70312 2.00293L6.70312 2.00293ZM7.08789 13.5H11.877C11.9575 13.5132 12.0396 13.5132 12.1201 13.5H16.9121L16.2031 19.8877C16.1318 20.5267 15.6038 21 14.9609 21H9.04004C8.39621 21 7.86886 20.5281 7.79785 19.8887C7.79785 19.8883 7.79785 19.888 7.79785 19.8877L7.08789 13.5Z" fill="#0A0A0A"/>
</g>
<defs>
<clipPath id="clip0_1555_22893">
<rect width="24" height="24" fill="white"/>
</clipPath>
</defs>
</svg>
